# xmcd
#
# Track frame offsets:
#	150
#	20851
#	33076
#	46876
#	67951
#	85360
#	103738
#	122962
#	139969
#	164532
#	178667
#	208298
#	222978
#
# Disc length: 3225 seconds
# Revision: 0
# Processed by: cddbd v1.5.2PL0 Copyright (c) Steve Scherf et al.
# Submitted via: dBpowerAMP V12.0
#
DISCID=c60c970d
DTITLE=Various Artist - Tony Cini's Blues Explosion Volume 2
DYEAR=2011
DGENRE=Blues
TTITLE0=Marshall and The Fro - My Bubble
TTITLE1=Genevieve Chadwick - One Time Thing
TTITLE2=Matt Southon - Life's a Funny Thing
TTITLE3=Darren Jack - Move Ahead
TTITLE4=Ali Penney And The Vibrolators - No No No
TTITLE5=Jonno Zilber - Can't Sleep
TTITLE6=Chase The Sun - Girl Can Talk
TTITLE7=PJ O'Brien - Beauty Queen
TTITLE8=Jenny Marie Lang - Not This Time
TTITLE9=Ray Beadle - Bankman
TTITLE10=Michelle Van Der Meer's Midnight Ramblers - Media in Blue
TTITLE11=Tangled Weed - Dyin' Shame
TTITLE12=Isaiah B Brunt - Pathway Home
EXTD=
EXTT0=
EXTT1=
EXTT2=
EXTT3=
EXTT4=
EXTT5=
EXTT6=
EXTT7=
EXTT8=
EXTT9=
EXTT10=
EXTT11=
EXTT12=
PLAYORDER=
